<svg width="18" height="18" viewBox="0 0 18 18" fill="none" xmlns="http://www.w3.org/2000/svg">
<path d="M12.9544 11.5937L18 16.6392L16.6392 18L11.5937 12.9544C10.3796 13.882 8.86239 14.433 7.21651 14.433C3.23094 14.433 0 11.2021 0 7.21651C0 3.23094 3.23094 0 7.21651 0C11.2021 0 14.433 3.23094 14.433 7.21651C14.433 8.86239 13.882 10.3796 12.9544 11.5937ZM7.21651 12.5086C10.1393 12.5086 12.5086 10.1393 12.5086 7.21651C12.5086 4.29376 10.1393 1.9244 7.21651 1.9244C4.29376 1.9244 1.9244 4.29376 1.9244 7.21651C1.9244 10.1393 4.29376 12.5086 7.21651 12.5086Z" fill="#324950"/>
</svg>
