<svg width="1920" height="1098" viewBox="0 0 1920 1098" fill="none" xmlns="http://www.w3.org/2000/svg">
<path fill-rule="evenodd" clip-rule="evenodd" d="M1146.15 187.436C1146.15 290.868 1062.3 374.715 958.867 374.715C855.436 374.715 771.588 290.868 771.588 187.436C771.588 84.0047 855.436 0.156982 958.867 0.156982C1062.3 0.156982 1146.15 84.0047 1146.15 187.436ZM397.029 268.159C325.993 245.557 251.727 229.412 177.461 222.954C117.069 218.64 55.2355 220.09 -6.11356 221.528H-6.11383L-6.11518 221.528C-36.6085 222.242 -66.9822 222.954 -97 222.954V281.075C-97 733.128 267.871 1098 719.925 1098H929.806V1094.77V975.3V781.563C942.722 507.102 613.369 342.425 397.029 268.159ZM1740.27 222.954C1666.01 229.412 1591.74 245.557 1520.7 268.159C1304.36 342.425 975.011 507.102 991.156 778.334V972.071V1091.54V1094.77H1201.04C1653.09 1094.77 2017.96 729.9 2017.96 277.846V222.954C1986.63 222.954 1955.29 222.231 1924.08 221.511C1862.02 220.078 1800.43 218.657 1740.27 222.954Z" fill="white"/>
</svg>
