<svg width="48" height="7" viewBox="0 0 48 7" fill="none" xmlns="http://www.w3.org/2000/svg">
<path fill-rule="evenodd" clip-rule="evenodd" d="M0.292894 4.53553C-0.0976312 4.92606 -0.0976312 5.55922 0.292894 5.94975C0.683418 6.34027 1.31658 6.34027 1.70711 5.94975L3.12132 4.53553L4.53553 5.94975C4.92606 6.34027 5.55922 6.34027 5.94975 5.94975C6.34027 5.55922 6.34027 4.92606 5.94975 4.53553L4.53553 3.12132L5.94975 1.70711C6.34027 1.31658 6.34027 0.683417 5.94975 0.292893C5.55922 -0.0976312 4.92606 -0.097631 4.53553 0.292893L3.12132 1.70711L1.70711 0.292893C1.31658 -0.0976308 0.683418 -0.0976308 0.292894 0.292893C-0.0976312 0.683418 -0.0976312 1.31658 0.292894 1.70711L1.70711 3.12132L0.292894 4.53553ZM10.2929 4.53553C9.90237 4.92606 9.90237 5.55922 10.2929 5.94975C10.6834 6.34027 11.3166 6.34027 11.7071 5.94975L13.1213 4.53553L14.5355 5.94975C14.9261 6.34027 15.5592 6.34027 15.9497 5.94975C16.3403 5.55922 16.3403 4.92606 15.9497 4.53553L14.5355 3.12132L15.9497 1.70711C16.3403 1.31658 16.3403 0.683417 15.9497 0.292893C15.5592 -0.0976312 14.9261 -0.097631 14.5355 0.292893L13.1213 1.70711L11.7071 0.292893C11.3166 -0.0976308 10.6834 -0.0976308 10.2929 0.292893C9.90237 0.683418 9.90237 1.31658 10.2929 1.70711L11.7071 3.12132L10.2929 4.53553ZM20.2929 5.94975C19.9024 5.55922 19.9024 4.92606 20.2929 4.53553L21.7071 3.12132L20.2929 1.70711C19.9024 1.31658 19.9024 0.683418 20.2929 0.292893C20.6834 -0.0976308 21.3166 -0.0976308 21.7071 0.292893L23.1213 1.70711L24.5355 0.292893C24.9261 -0.097631 25.5592 -0.0976312 25.9497 0.292893C26.3403 0.683417 26.3403 1.31658 25.9497 1.70711L24.5355 3.12132L25.9497 4.53553C26.3403 4.92606 26.3403 5.55922 25.9497 5.94975C25.5592 6.34027 24.9261 6.34027 24.5355 5.94975L23.1213 4.53553L21.7071 5.94975C21.3166 6.34027 20.6834 6.34027 20.2929 5.94975ZM30.2929 4.53553C29.9024 4.92606 29.9024 5.55922 30.2929 5.94975C30.6834 6.34027 31.3166 6.34027 31.7071 5.94975L33.1213 4.53553L34.5355 5.94975C34.9261 6.34027 35.5592 6.34027 35.9497 5.94975C36.3403 5.55922 36.3403 4.92606 35.9497 4.53553L34.5355 3.12132L35.9497 1.70711C36.3403 1.31658 36.3403 0.683417 35.9497 0.292893C35.5592 -0.0976312 34.9261 -0.097631 34.5355 0.292893L33.1213 1.70711L31.7071 0.292893C31.3166 -0.0976308 30.6834 -0.0976308 30.2929 0.292893C29.9024 0.683418 29.9024 1.31658 30.2929 1.70711L31.7071 3.12132L30.2929 4.53553ZM41.2929 5.94975C40.9024 5.55922 40.9024 4.92606 41.2929 4.53553L42.7071 3.12132L41.2929 1.70711C40.9024 1.31658 40.9024 0.683418 41.2929 0.292893C41.6834 -0.0976308 42.3166 -0.0976308 42.7071 0.292893L44.1213 1.70711L45.5355 0.292893C45.9261 -0.097631 46.5592 -0.0976312 46.9497 0.292893C47.3403 0.683417 47.3403 1.31658 46.9497 1.70711L45.5355 3.12132L46.9497 4.53553C47.3403 4.92606 47.3403 5.55922 46.9497 5.94975C46.5592 6.34027 45.9261 6.34027 45.5355 5.94975L44.1213 4.53553L42.7071 5.94975C42.3166 6.34027 41.6834 6.34027 41.2929 5.94975Z" fill="#57984C"/>
</svg>
