<svg width="32" height="56" viewBox="0 0 32 56" fill="none" xmlns="http://www.w3.org/2000/svg">
<path d="M31.8033 0.572191C31.8033 0.256341 31.4479 0 31.0082 0C30.5685 0 30.2131 0.256341 30.2131 0.572191V15.555C24.4511 15.7936 19.5112 18.6111 17.0909 22.617V0.572191C17.0909 0.256341 16.7347 0 16.2959 0C15.857 0 15.5008 0.256341 15.5008 0.572191V22.617C13.0805 18.6111 8.13984 15.793 2.37704 15.5544V0.572191C2.37704 0.256341 2.02084 0 1.58195 0C1.14306 0 0.786865 0.256341 0.786865 0.572191V16.11C0.786865 19.4756 2.40884 22.5357 5.04456 24.8045C3.93064 24.5962 2.7722 24.4823 1.58195 24.4823C1.14306 24.4823 0.786865 24.7387 0.786865 25.0545C0.786865 28.4213 2.41043 31.4831 5.04854 33.7524C3.93303 33.5441 2.77379 33.4302 1.58195 33.4302C1.14306 33.4302 0.786865 33.686 0.786865 34.0024C0.786865 37.368 2.40964 40.4281 5.04615 42.6974C3.93144 42.4892 2.773 42.3753 1.58195 42.3753C1.14306 42.3753 0.786865 42.6311 0.786865 42.9475C0.786865 49.9231 7.74389 55.598 16.2959 55.598C24.847 55.598 31.8033 49.9231 31.8033 42.9475C31.8033 42.6311 31.4479 42.3753 31.0082 42.3753C29.8171 42.3753 28.6587 42.4892 27.5448 42.6974C30.1805 40.4287 31.8033 37.3686 31.8033 34.003C31.8033 33.6866 31.4479 33.4308 31.0082 33.4308C29.8163 33.4308 28.6571 33.5447 27.5424 33.7529C30.1797 31.4836 31.8033 28.4224 31.8033 25.0551C31.8033 24.7392 31.4479 24.4829 31.0082 24.4829C29.8179 24.4829 28.6603 24.5968 27.5464 24.805C30.1813 22.5363 31.8033 19.4762 31.8033 16.1106V0.572191ZM30.1757 16.7171C29.8052 22.55 24.1696 27.2357 17.1283 27.583C17.4988 21.7501 23.1344 17.0639 30.1757 16.7171ZM15.5008 31.5615C14.8059 30.4114 13.9026 29.3608 12.8325 28.4402C13.6975 28.6015 14.588 28.7079 15.5008 28.7457V31.5615ZM15.4634 36.5281C8.4213 36.1813 2.78492 31.4951 2.41441 25.6622C9.45651 26.0089 15.0929 30.6946 15.4634 36.5281ZM15.5008 40.5082C14.8051 39.357 13.9011 38.3059 12.8301 37.3846C13.6959 37.5466 14.5872 37.653 15.5008 37.6908V40.5082ZM15.4634 45.4743C8.4213 45.1275 2.78492 40.4419 2.41441 34.6095C9.45651 34.9563 15.0929 39.6414 15.4634 45.4743ZM15.5008 49.4533C14.8059 48.3026 13.9018 47.2521 12.8317 46.3308C13.6967 46.4928 14.588 46.5992 15.5008 46.637V49.4533ZM17.0909 46.637C18.0037 46.5992 18.895 46.4928 19.7593 46.3314C18.6891 47.2521 17.7859 48.3026 17.0909 49.4527V46.637ZM17.0909 40.5077V37.6908C18.0045 37.653 18.8966 37.5466 19.7609 37.3846C18.6907 38.3059 17.7859 39.357 17.0909 40.5077ZM30.1757 34.6089C29.8052 40.4413 24.1696 45.1269 17.1283 45.4737C17.4988 39.6414 23.1344 34.9563 30.1757 34.6089ZM17.0909 31.5609V28.7457C18.0029 28.7079 18.8942 28.6015 19.7577 28.4402C18.6891 29.3608 17.7851 30.4114 17.0909 31.5609ZM30.1757 25.6622C29.8052 31.4951 24.1696 36.1813 17.1283 36.5281C17.4988 30.6946 23.1344 26.0089 30.1757 25.6622ZM15.4634 27.583C8.4213 27.2363 2.78492 22.55 2.41441 16.7171C9.45651 17.0639 15.0929 21.7501 15.4634 27.583ZM2.41441 43.554C9.45651 43.9007 15.0929 48.5864 15.4634 54.4188C8.4213 54.072 2.78492 49.3869 2.41441 43.554ZM17.1283 54.4188C17.4988 48.5864 23.1344 43.9007 30.1757 43.554C29.8052 49.3869 24.1696 54.072 17.1283 54.4188Z" fill="#324950"/>
</svg>
